{"accessors":[{"bufferView":0,"componentType":5123,"count":1536,"max":[771],"min":[0],"type":"SCALAR"},{"bufferView":1,"componentType":5126,"count":772,"max":[14.152172088623047,3.0435080589086283e-07,14.152172088623047],"min":[-14.152172088623047,-2.902609139709966e-07,-14.152170181274414],"type":"VEC3"},{"bufferView":2,"componentType":5126,"count":772,"max":[5.385061996321383e-08,1.0,3.370582390971322e-08],"min":[-5.385061996321383e-08,-1.0,-3.370582390971322e-08],"type":"VEC3"},{"bufferView":3,"componentType":5126,"count":772,"max":[1.0,0.9750379100441933],"min":[0.0,0.01950603723526001],"type":"VEC2"},{"bufferView":4,"componentType":5123,"count":11892,"max":[2043],"min":[0],"type":"SCALAR"},{"bufferView":5,"componentType":5126,"count":2044,"max":[0.9872310161590576,0.9894472360610962,0.9872307181358337],"min":[-0.9872304201126099,-0.9737918376922607,-0.9872304201126099],"type":"VEC3"},{"bufferView":6,"componentType":5126,"count":2044,"max":[0.9999999403953552,0.9992201924324036,0.9999999403953552],"min":[-1.0,-1.0,-1.0],"type":"VEC3"},{"bufferView":7,"componentType":5126,"count":2044,"max":[1.3522906303405762,0.9851541519165039],"min":[0.00010225176811218262,0.014950454235076904],"type":"VEC2"}],"asset":{"generator":"Soft8Soft Verge3D for Blender add-on","version":"2.0"},"bufferViews":[{"buffer":0,"byteLength":3072,"byteOffset":0,"target":34963},{"buffer":0,"byteLength":9264,"byteOffset":3072,"target":34962},{"buffer":0,"byteLength":9264,"byteOffset":12336,"target":34962},{"buffer":0,"byteLength":6176,"byteOffset":21600,"target":34962},{"buffer":0,"byteLength":23784,"byteOffset":27776,"target":34963},{"buffer":0,"byteLength":24528,"byteOffset":51560,"target":34962},{"buffer":0,"byteLength":24528,"byteOffset":76088,"target":34962},{"buffer":0,"byteLength":16352,"byteOffset":100616,"target":34962}],"buffers":[{"byteLength":116968,"uri":"Saturn.bin"}],"cameras":[{"extensions":{"S8S_v3d_camera":{"controls":"ORBIT","enablePan":false,"moveSpeed":1.0,"orbitMaxDistance":1000.0,"orbitMaxPolarAngle":3.1415927410125732,"orbitMaxZoom":100.0,"orbitMinDistance":0.0,"orbitMinPolarAngle":0.0,"orbitMinZoom":0.009999999776482582,"orbitTarget":[0.0,0.0,-0.0],"rotateSpeed":1.0,"viewportFitInitialAspect":1.7777777777777777,"viewportFitType":"AUTO"}},"name":"Camera.001","perspective":{"aspectRatio":1.7777777777777777,"yfov":0.9727643957843545,"zfar":1000.0,"znear":0.10000000149011612},"type":"perspective"}],"extensions":{"S8S_v3d_lights":{"lights":[{"angle":0.8168140649795532,"color":[1.0,1.0,1.0],"decay":2,"distance":316.22776955095867,"intensity":100000.0,"name":"Spot.001","penumbra":1.0,"profile":"blender","shadow":{"bias":-0.0018,"cameraFar":316.22776955095867,"cameraFov":1.6336281299591064,"cameraNear":0.05000000074505806,"enabled":false,"expBias":2.5,"mapSize":512,"radius":8.049999237060547,"slopeScaledBias":2.5},"type":"spot"}]}},"extensionsUsed":["S8S_v3d_texture","S8S_v3d_materials","S8S_v3d_camera","S8S_v3d_lights","S8S_v3d_mesh","S8S_v3d_node","S8S_v3d_scene"],"images":[{"uri":"8k_saturn.jpg"},{"uri":"saturn_rings.jpg"},{"uri":"starmap_2020_4k.png"}],"materials":[{"extensions":{"S8S_v3d_materials":{"gtaoVisible":true,"materialIndex":0,"nodeGraph":{"edges":[{"fromNode":1,"fromOutput":0,"toInput":0,"toNode":0},{"fromNode":3,"fromOutput":0,"toInput":0,"toNode":1},{"fromNode":4,"fromOutput":0,"toInput":0,"toNode":3},{"fromNode":6,"fromOutput":0,"toInput":2,"toNode":2},{"fromNode":2,"fromOutput":0,"toInput":22,"toNode":1},{"fromNode":5,"fromOutput":3,"toInput":0,"toNode":4},{"fromNode":3,"fromOutput":0,"toInput":0,"toNode":6}],"nodes":[{"inputs":[[0,0,0,0],[0,0,0,0],[0.0,0.0,0.0],0.0],"is_active_output":true,"name":"Material Output","outputs":[],"type":"OUTPUT_MATERIAL_BL"},{"inputs":[[0.800000011920929,0.800000011920929,0.800000011920929,1.0],0.0,[1.0,0.20000000298023224,0.10000000149011612],[0.800000011920929,0.800000011920929,0.800000011920929,1.0],1.399999976158142,0.0,0.0,0.11818182468414307,0.0,0.9145454168319702,0.0,0.0,0.0,0.5,0.0,0.029999999329447746,1.4500000476837158,0.0,0.0,[0.0,0.0,0.0,1.0],1.0,1.0,[0.0,0.0,0.0],[0.0,0.0,0.0],[0.0,0.0,0.0]],"is_active_output":false,"name":"Principled BSDF","outputs":[[0,0,0,0]],"type":"BSDF_PRINCIPLED_BL"},{"inputs":[0.5266666412353516,0.05000000074505806,1.0,[0.0,0.0,0.0]],"invert":false,"is_active_output":false,"name":"Bump","outputs":[[0.0,0.0,0.0]],"type":"BUMP_BL"},{"inputs":[[0.0,0.0,0.0]],"is_active_output":false,"name":"Environment Texture","outputs":[[0.0,0.0,0.0,0.0]],"projection":"EQUIRECTANGULAR","texture":0,"type":"TEX_ENVIRONMENT_BL"},{"inputs":[[0.0,0.0,0.0],[0.0,0.0,0.0],[6.2831854820251465,0.0,0.0],[-1.0,-1.0,-1.0]],"is_active_output":false,"name":"Mapping.001","outputs":[[0.0,0.0,0.0]],"type":"MAPPING_BL","vectorType":"POINT"},{"inputs":[],"is_active_output":false,"name":"Texture Coordinate.001","object":-1,"outputs":[[0.0,0.0,0.0],[0.0,0.0,0.0],[0.0,0.0,0.0],[0.0,0.0,0.0],[0.0,0.0,0.0],[0.0,0.0,0.0],[0.0,0.0,0.0]],"type":"TEX_COORD_BL"},{"curve":{"input":[0.0,0.06909074634313583,0.2945452034473419,0.42545488476753235],"interpolation":"LINEAR","output":[0.0,0.0,0.0,1.0,0.25,0.25,0.25,1.0,0.5,0.5,0.5,1.0,1.0,1.0,1.0,1.0]},"inputs":[0.5],"is_active_output":false,"name":"ColorRamp","outputs":[[0.0,0.0,0.0,0.0],0.0],"type":"VALTORGB_BL"}]},"useCastShadows":true}},"name":"Material.008"},{"alphaMode":"BLEND","doubleSided":true,"extensions":{"S8S_v3d_materials":{"blendMode":{"blendEquation":32774,"dstRGB":771,"srcRGB":1},"depthWrite":false,"gtaoVisible":false,"materialIndex":0,"nodeGraph":{"edges":[{"fromNode":2,"fromOutput":0,"toInput":2,"toNode":3},{"fromNode":5,"fromOutput":0,"toInput":0,"toNode":4},{"fromNode":8,"fromOutput":0,"toInput":0,"toNode":2},{"fromNode":1,"fromOutput":0,"toInput":0,"toNode":3},{"fromNode":8,"fromOutput":0,"toInput":0,"toNode":1},{"fromNode":0,"fromOutput":0,"toInput":1,"toNode":3},{"fromNode":3,"fromOutput":0,"toInput":0,"toNode":5},{"fromNode":8,"fromOutput":0,"toInput":0,"toNode":6},{"fromNode":8,"fromOutput":0,"toInput":2,"toNode":7},{"fromNode":7,"fromOutput":0,"toInput":22,"toNode":6},{"fromNode":6,"fromOutput":0,"toInput":1,"toNode":5}],"nodes":[{"inputs":[[1.0,1.0,1.0,1.0]],"is_active_output":false,"name":"Transparent BSDF","outputs":[[0,0,0,0]],"type":"BSDF_TRANSPARENT_BL"},{"curve":{"input":[0.0,0.04727325960993767],"interpolation":"LINEAR","output":[0.0,0.0,0.0,1.0,1.0,1.0,1.0,1.0]},"inputs":[0.5],"is_active_output":false,"name":"ColorRamp","outputs":[[0.0,0.0,0.0,0.0],0.0],"type":"VALTORGB_BL"},{"inputs":[[0.800000011920929,0.800000011920929,0.800000011920929,1.0],0.0,[0.0,0.0,0.0]],"is_active_output":false,"name":"Diffuse BSDF","outputs":[[0,0,0,0]],"type":"BSDF_DIFFUSE_BL"},{"inputs":[0.5,[0,0,0,0],[0,0,0,0]],"is_active_output":false,"name":"Mix Shader","outputs":[[0,0,0,0]],"type":"MIX_SHADER_BL"},{"inputs":[[0,0,0,0],[0,0,0,0],[0.0,0.0,0.0],0.0],"is_active_output":true,"name":"Material Output","outputs":[],"type":"OUTPUT_MATERIAL_BL"},{"inputs":[[0,0,0,0],[0,0,0,0]],"is_active_output":false,"name":"Add Shader","outputs":[[0,0,0,0]],"type":"ADD_SHADER_BL"},{"inputs":[[0.800000011920929,0.800000011920929,0.800000011920929,1.0],0.0,[1.0,0.20000000298023224,0.10000000149011612],[1.0,1.0,1.0,1.0],1.399999976158142,0.0,0.0,0.0,0.0,0.8690909147262573,0.0,0.0,0.0,0.5,0.0,0.029999999329447746,1.4500000476837158,0.0,0.0,[0.0,0.0,0.0,1.0],1.0,1.0,[0.0,0.0,0.0],[0.0,0.0,0.0],[0.0,0.0,0.0]],"is_active_output":false,"name":"Principled BSDF","outputs":[[0,0,0,0]],"type":"BSDF_PRINCIPLED_BL"},{"inputs":[0.46666669845581055,0.10000000149011612,1.0,[0.0,0.0,0.0]],"invert":false,"is_active_output":false,"name":"Bump","outputs":[[0.0,0.0,0.0]],"type":"BUMP_BL"},{"inputs":[[0.0,0.0,0.0]],"is_active_output":false,"name":"Image Texture","outputs":[[0.0,0.0,0.0,0.0],0.0],"projection":"FLAT","projectionBlend":0.0,"texture":1,"type":"TEX_IMAGE_BL"}]},"renderSide":"DOUBLE","useCastShadows":true}},"name":"Rings.001"},{"extensions":{"S8S_v3d_materials":{"gtaoVisible":true,"materialIndex":0,"nodeGraph":{"edges":[{"fromNode":0,"fromOutput":0,"toInput":0,"toNode":1},{"fromNode":3,"fromOutput":0,"toInput":0,"toNode":2},{"fromNode":13,"fromOutput":0,"toInput":1,"toNode":14},{"fromNode":6,"fromOutput":0,"toInput":2,"toNode":14},{"fromNode":5,"fromOutput":0,"toInput":0,"toNode":4},{"fromNode":2,"fromOutput":0,"toInput":1,"toNode":9},{"fromNode":4,"fromOutput":0,"toInput":2,"toNode":9},{"fromNode":9,"fromOutput":0,"toInput":0,"toNode":6},{"fromNode":1,"fromOutput":0,"toInput":0,"toNode":3},{"fromNode":1,"fromOutput":0,"toInput":0,"toNode":5},{"fromNode":0,"fromOutput":0,"toInput":0,"toNode":15},{"fromNode":8,"fromOutput":0,"toInput":0,"toNode":18},{"fromNode":8,"fromOutput":0,"toInput":0,"toNode":7},{"fromNode":18,"fromOutput":0,"toInput":1,"toNode":10},{"fromNode":7,"fromOutput":0,"toInput":2,"toNode":10},{"fromNode":10,"fromOutput":0,"toInput":0,"toNode":13},{"fromNode":15,"fromOutput":0,"toInput":0,"toNode":11},{"fromNode":11,"fromOutput":0,"toInput":0,"toNode":8},{"fromNode":12,"fromOutput":0,"toInput":0,"toNode":19},{"fromNode":21,"fromOutput":0,"toInput":0,"toNode":20},{"fromNode":20,"fromOutput":0,"toInput":0,"toNode":12},{"fromNode":14,"fromOutput":0,"toInput":1,"toNode":12},{"fromNode":16,"fromOutput":0,"toInput":0,"toNode":21},{"fromNode":0,"fromOutput":0,"toInput":0,"toNode":16}],"nodes":[{"inputs":[],"is_active_output":false,"name":"Texture Coordinate","object":-1,"outputs":[[0.0,0.0,0.0],[0.0,0.0,0.0],[0.0,0.0,0.0],[0.0,0.0,0.0],[0.0,0.0,0.0],[0.0,0.0,0.0],[0.0,0.0,0.0]],"type":"TEX_COORD_BL"},{"inputs":[[0.0,0.0,0.0],[0.0,0.0,0.0],[0.0,0.0,0.0],[1.0,1.0,1.0]],"is_active_output":false,"name":"Mapping","outputs":[[0.0,0.0,0.0]],"type":"MAPPING_BL","vectorType":"POINT"},{"curve":{"input":[0.5272728800773621,1.0],"interpolation":"LINEAR","output":[0.0,0.0,0.0,1.0,0.024867668747901917,0.04914506897330284,0.10995908826589584,1.0]},"inputs":[0.5],"is_active_output":false,"name":"ColorRamp.001","outputs":[[0.0,0.0,0.0,0.0],0.0],"type":"VALTORGB_BL"},{"dispersionFactor":1.0,"falloffFactor":0.0,"inputs":[[0.0,0.0,0.0],0.0,3.0,15.0,0.7200000286102295,0.0],"is_active_output":false,"name":"Noise Texture.001","outputs":[0.0,[0.0,0.0,0.0,0.0]],"type":"TEX_NOISE_BL"},{"curve":{"input":[0.47272732853889465,1.0],"interpolation":"LINEAR","output":[0.0,0.0,0.0,1.0,0.057571083307266235,0.02946833334863186,0.1099465861916542,1.0]},"inputs":[0.5],"is_active_output":false,"name":"ColorRamp.002","outputs":[[0.0,0.0,0.0,0.0],0.0],"type":"VALTORGB_BL"},{"dispersionFactor":1.0,"falloffFactor":0.0,"inputs":[[0.0,0.0,0.0],0.0,4.000000953674316,15.0,0.7200000286102295,0.0],"is_active_output":false,"name":"Noise Texture.002","outputs":[0.0,[0.0,0.0,0.0,0.0]],"type":"TEX_NOISE_BL"},{"inputs":[[0.014996668323874474,0.014996668323874474,0.014996668323874474,1.0],1.0],"is_active_output":false,"name":"Background","outputs":[[0,0,0,0]],"type":"BACKGROUND_BL"},{"curve":{"input":[0.0,0.3181818425655365,1.0],"interpolation":"LINEAR","output":[0.0,0.0,0.0,1.0,1.0,0.9377816319465637,0.9493316411972046,1.0,1.0,1.0,1.0,1.0]},"inputs":[0.5],"is_active_output":false,"name":"ColorRamp.004","outputs":[[0.0,0.0,0.0,0.0],0.0],"type":"VALTORGB_BL"},{"curve":{"input":[0.0,0.05090959370136261],"interpolation":"LINEAR","output":[1.0,1.0,1.0,1.0,0.0,0.0,0.0,1.0]},"inputs":[0.5],"is_active_output":false,"name":"ColorRamp","outputs":[[0.0,0.0,0.0,0.0],0.0],"type":"VALTORGB_BL"},{"blendType":"MIX","inputs":[0.5,[0.5,0.5,0.5,1.0],[0.5,0.5,0.5,1.0]],"is_active_output":false,"name":"Mix","outputs":[[0.0,0.0,0.0,0.0]],"type":"MIX_RGB_BL","useClamp":false},{"blendType":"MIX","inputs":[0.6133333444595337,[0.5,0.5,0.5,1.0],[0.5,0.5,0.5,1.0]],"is_active_output":false,"name":"Mix.001","outputs":[[0.0,0.0,0.0,0.0]],"type":"MIX_RGB_BL","useClamp":false},{"distance":"EUCLIDEAN","feature":"F1","inputs":[[0.0,0.0,0.0],0.0,241.99998474121094,1.0,0.5,1.0],"is_active_output":false,"name":"Voronoi Texture","outputs":[0.0,[0.0,0.0,0.0,0.0],[0.0,0.0,0.0],0.0,0.0],"type":"TEX_VORONOI_BL"},{"inputs":[[0,0,0,0],[0,0,0,0]],"is_active_output":false,"name":"Add Shader","outputs":[[0,0,0,0]],"type":"ADD_SHADER_BL"},{"inputs":[[0.014996668323874474,0.014996668323874474,0.014996668323874474,1.0],1.0],"is_active_output":false,"name":"Background.001","outputs":[[0,0,0,0]],"type":"BACKGROUND_BL"},{"inputs":[0.2800000011920929,[0,0,0,0],[0,0,0,0]],"is_active_output":false,"name":"Mix Shader","outputs":[[0,0,0,0]],"type":"MIX_SHADER_BL"},{"inputs":[[0.0,0.0,0.0],[0.0,0.0,0.0],[0.0,0.0,0.0],[1.0,1.0,1.0]],"is_active_output":false,"name":"Mapping.001","outputs":[[0.0,0.0,0.0]],"type":"MAPPING_BL","vectorType":"POINT"},{"inputs":[[0.0,0.0,0.0],[0.0,0.0,0.0],[-3.090977907180786,0.0,0.0],[0.20000000298023224,0.20000000298023224,0.20000000298023224]],"is_active_output":false,"name":"Mapping.002","outputs":[[0.0,0.0,0.0]],"type":"MAPPING_BL","vectorType":"TEXTURE"},{"dispersionFactor":1.0,"falloffFactor":0.0,"inputs":[[0.0,0.0,0.0],0.0,600.0,8.399999618530273,0.5,0.0],"is_active_output":false,"name":"Noise Texture","outputs":[0.0,[0.0,0.0,0.0,0.0]],"type":"TEX_NOISE_BL"},{"curve":{"input":[0.0,0.11090917885303497,1.0],"interpolation":"LINEAR","output":[0.0,0.0,0.0,1.0,1.0,0.30380451679229736,0.038157302886247635,1.0,1.0,1.0,1.0,1.0]},"inputs":[0.5],"is_active_output":false,"name":"ColorRamp.003","outputs":[[0.0,0.0,0.0,0.0],0.0],"type":"VALTORGB_BL"},{"inputs":[[0,0,0,0],[0,0,0,0]],"is_active_output":true,"name":"World Output","outputs":[],"type":"OUTPUT_WORLD_BL"},{"inputs":[[0.014996668323874474,0.014996668323874474,0.014996668323874474,1.0],0.44999998807907104],"is_active_output":false,"name":"Background.002","outputs":[[0,0,0,0]],"type":"BACKGROUND_BL"},{"inputs":[[0.0,0.0,0.0]],"is_active_output":false,"name":"Environment Texture","outputs":[[0.0,0.0,0.0,0.0]],"projection":"EQUIRECTANGULAR","texture":2,"type":"TEX_ENVIRONMENT_BL"}]},"useCastShadows":true}},"name":"Verge3D_Environment_World.001"}],"meshes":[{"extensions":{"S8S_v3d_mesh":{"colorLayers":{},"uvLayers":{"UVMap":"TEXCOORD_0"}}},"name":"Circle.002","primitives":[{"attributes":{"NORMAL":2,"POSITION":1,"TEXCOORD_0":3},"indices":0,"material":1,"mode":4}]},{"extensions":{"S8S_v3d_mesh":{"colorLayers":{},"uvLayers":{"UVMap":"TEXCOORD_0"}}},"name":"Sphere.006","primitives":[{"attributes":{"NORMAL":6,"POSITION":5,"TEXCOORD_0":7},"indices":4,"material":0,"mode":4}]}],"nodes":[{"camera":0,"extensions":{"S8S_v3d_node":{"frustumCulling":true,"groupNames":["Collection"],"hidden":false,"hidpiCompositing":false,"objectColor":[1.0,1.0,1.0,1.0],"objectIndex":0,"renderOrder":0}},"name":"Camera.001","rotation":[-0.1490098387002945,0.5216755270957947,0.0931122675538063,0.8348537683486938],"scale":[1.0,0.9999999403953552,0.9999998807907104],"translation":[80.44737243652344,32.00259017944336,39.23670196533203]},{"extensions":{"S8S_v3d_node":{"frustumCulling":true,"groupNames":["Collection","Saturn"],"hidden":false,"hidpiCompositing":false,"objectColor":[1.0,1.0,1.0,1.0],"objectIndex":0,"renderOrder":0,"useShadows":true}},"mesh":1,"name":"Saturn","rotation":[-0.9589502811431885,0.2710755467414856,0.07034948468208313,0.04453592002391815],"scale":[9.999999046325684,10.0,10.0],"translation":[0.0,0.0,-0.6245651245117188]},{"extensions":{"S8S_v3d_lights":{"light":0},"S8S_v3d_node":{"frustumCulling":true,"groupNames":["Collection","Saturn"],"hidden":false,"hidpiCompositing":false,"objectColor":[1.0,1.0,1.0,1.0],"objectIndex":0,"renderOrder":0}},"name":"Spot for Saturn","rotation":[-0.6952664256095886,0.33357253670692444,-0.440787136554718,0.45939183235168457],"scale":[1.0,0.9999999403953552,0.9999999403953552],"translation":[67.89855194091797,15.387371063232422,-15.835624694824219]},{"extensions":{"S8S_v3d_node":{"frustumCulling":true,"groupNames":["Collection","Saturn"],"hidden":false,"hidpiCompositing":false,"objectColor":[1.0,1.0,1.0,1.0],"objectIndex":0,"renderOrder":0,"useShadows":true}},"mesh":0,"name":"Circle","rotation":[0.0,0.0,-0.19361719489097595,0.9810771942138672],"scale":[1.5836721658706665,1.5836721658706665,1.583672046661377],"translation":[0.0,0.0,-0.6245651245117188]}],"samplers":[{}],"scene":0,"scenes":[{"extensions":{"S8S_v3d_scene":{"aaMethod":"AUTO","iblEnvironmentMode":"PMREM","physicallyCorrectLights":true,"pmremMaxTileSize":512,"shadowMap":{"esmDistanceScale":1.0,"renderReverseSided":false,"renderSingleSided":true,"type":"PCFPOISSON"},"toneMapping":{"type":"filmicBlender"},"worldMaterial":2}},"extras":{"animFrameRate":24,"coordSystem":"Z_UP_RIGHT"},"name":"Scene","nodes":[0,1,2,3]}],"textures":[{"extensions":{"S8S_v3d_texture":{"colorSpace":"srgb"}},"name":"8k_saturn.jpg","sampler":0,"source":0},{"extensions":{"S8S_v3d_texture":{"colorSpace":"srgb"}},"name":"saturn_rings.jpg.001","sampler":0,"source":1},{"extensions":{"S8S_v3d_texture":{"colorSpace":"srgb"}},"name":"starmap_2020_4k.exr","sampler":0,"source":2}]}
